<svg width="17" height="16" viewBox="0 0 17 16" fill="none" xmlns="http://www.w3.org/2000/svg">
<path d="M3.83333 5.99997V11.3333M6.83333 5.99997V11.3333M10.1667 5.99997V11.3333M13.1667 5.99997V11.3333M2.5 12.4L2.5 12.9333C2.5 13.3067 2.5 13.4934 2.57266 13.636C2.63658 13.7614 2.73856 13.8634 2.86401 13.9273C3.00661 14 3.1933 14 3.56667 14H13.4333C13.8067 14 13.9934 14 14.136 13.9273C14.2614 13.8634 14.3634 13.7614 14.4273 13.636C14.5 13.4934 14.5 13.3067 14.5 12.9333V12.4C14.5 12.0266 14.5 11.8399 14.4273 11.6973C14.3634 11.5719 14.2614 11.4699 14.136 11.406C13.9934 11.3333 13.8067 11.3333 13.4333 11.3333H3.56667C3.1933 11.3333 3.00661 11.3333 2.86401 11.406C2.73857 11.4699 2.63658 11.5719 2.57266 11.6973C2.5 11.8399 2.5 12.0266 2.5 12.4ZM8.26861 2.05139L3.33527 3.14769C3.03723 3.21392 2.88821 3.24704 2.77698 3.32717C2.67886 3.39786 2.60182 3.4939 2.5541 3.60502C2.5 3.73099 2.5 3.88364 2.5 4.18896L2.5 4.93331C2.5 5.30667 2.5 5.49336 2.57266 5.63597C2.63658 5.76141 2.73856 5.86339 2.86401 5.92731C3.00661 5.99997 3.1933 5.99997 3.56667 5.99997H13.4333C13.8067 5.99997 13.9934 5.99997 14.136 5.92731C14.2614 5.86339 14.3634 5.76141 14.4273 5.63597C14.5 5.49336 14.5 5.30667 14.5 4.93331V4.18896C14.5 3.88365 14.5 3.73099 14.4459 3.60502C14.3982 3.4939 14.3211 3.39786 14.223 3.32718C14.1118 3.24704 13.9628 3.21392 13.6647 3.14769L8.73139 2.05139C8.64504 2.0322 8.60187 2.02261 8.55824 2.01878C8.51949 2.01539 8.48051 2.01539 8.44176 2.01878C8.39813 2.02261 8.35496 2.0322 8.26861 2.05139Z" stroke="#D4E7FF" stroke-linecap="round" stroke-linejoin="round"/>
</svg>
