<svg width="100" height="100" viewBox="0 0 100 100" fill="none" xmlns="http://www.w3.org/2000/svg">
<g filter="url(#filter0_d_11391_25106)">
<rect x="18" y="18" width="64" height="64" rx="32" fill="#036BDD" shape-rendering="crispEdges"/>
<rect x="16" y="16" width="68" height="68" rx="34" stroke="white" stroke-width="4" shape-rendering="crispEdges"/>
<path d="M60 33.4999L49 44.4999M60 33.4999L53 53.4999L49 44.4999M60 33.4999L40 40.4999L49 44.4999" stroke="#D4E7FF" stroke-width="1.71429" stroke-linecap="round" stroke-linejoin="round"/>
<path d="M41.02 65.62C40.5067 65.62 40.0567 65.53 39.67 65.35C39.2833 65.1633 38.9833 64.9033 38.77 64.57C38.5567 64.2367 38.45 63.8467 38.45 63.4H39.5C39.5067 63.6533 39.5667 63.8867 39.68 64.1C39.8 64.3067 39.97 64.4733 40.19 64.6C40.4167 64.72 40.6933 64.78 41.02 64.78C41.3 64.78 41.54 64.7333 41.74 64.64C41.9467 64.5467 42.1033 64.42 42.21 64.26C42.3167 64.0933 42.37 63.9033 42.37 63.69C42.37 63.4433 42.3133 63.24 42.2 63.08C42.0867 62.92 41.9333 62.79 41.74 62.69C41.5533 62.5833 41.3333 62.49 41.08 62.41C40.8333 62.33 40.5733 62.2433 40.3 62.15C39.7467 61.97 39.3333 61.7367 39.06 61.45C38.7933 61.1633 38.66 60.79 38.66 60.33C38.66 59.9367 38.7533 59.5967 38.94 59.31C39.1267 59.0167 39.3867 58.79 39.72 58.63C40.06 58.4633 40.46 58.38 40.92 58.38C41.3733 58.38 41.77 58.4633 42.11 58.63C42.45 58.7967 42.7167 59.0267 42.91 59.32C43.1033 59.6133 43.2 59.9567 43.2 60.35H42.14C42.14 60.17 42.0933 59.9933 42 59.82C41.9067 59.6467 41.7667 59.5067 41.58 59.4C41.3933 59.2867 41.1633 59.23 40.89 59.23C40.6633 59.2233 40.46 59.26 40.28 59.34C40.1 59.42 39.96 59.5367 39.86 59.69C39.76 59.8433 39.71 60.0267 39.71 60.24C39.71 60.4533 39.7533 60.6267 39.84 60.76C39.9333 60.8867 40.0667 60.9967 40.24 61.09C40.4133 61.1833 40.6133 61.27 40.84 61.35C41.0733 61.4233 41.33 61.5067 41.61 61.6C41.9567 61.7133 42.2633 61.8533 42.53 62.02C42.8033 62.18 43.0167 62.39 43.17 62.65C43.33 62.9033 43.41 63.23 43.41 63.63C43.41 63.9767 43.32 64.3 43.14 64.6C42.96 64.9 42.6933 65.1467 42.34 65.34C41.9867 65.5267 41.5467 65.62 41.02 65.62ZM46.8291 65.62C46.3491 65.62 45.9225 65.51 45.5491 65.29C45.1758 65.07 44.8825 64.7633 44.6691 64.37C44.4625 63.9767 44.3591 63.52 44.3591 63C44.3591 62.4667 44.4625 62.0033 44.6691 61.61C44.8825 61.21 45.1758 60.9 45.5491 60.68C45.9225 60.4533 46.3558 60.34 46.8491 60.34C47.3425 60.34 47.7658 60.45 48.1191 60.67C48.4725 60.89 48.7458 61.1833 48.9391 61.55C49.1325 61.91 49.2291 62.31 49.2291 62.75C49.2291 62.8167 49.2258 62.89 49.2191 62.97C49.2191 63.0433 49.2158 63.1267 49.2091 63.22H45.0891V62.51H48.2291C48.2091 62.09 48.0691 61.7633 47.8091 61.53C47.5491 61.29 47.2258 61.17 46.8391 61.17C46.5658 61.17 46.3158 61.2333 46.0891 61.36C45.8625 61.48 45.6791 61.66 45.5391 61.9C45.4058 62.1333 45.3391 62.43 45.3391 62.79V63.07C45.3391 63.4433 45.4058 63.76 45.5391 64.02C45.6791 64.2733 45.8625 64.4667 46.0891 64.6C46.3158 64.7267 46.5625 64.79 46.8291 64.79C47.1491 64.79 47.4125 64.72 47.6191 64.58C47.8258 64.44 47.9791 64.25 48.0791 64.01H49.0791C48.9925 64.3167 48.8458 64.5933 48.6391 64.84C48.4325 65.08 48.1758 65.27 47.8691 65.41C47.5691 65.55 47.2225 65.62 46.8291 65.62ZM50.3402 65.5V60.46H51.2402L51.3002 61.32C51.4602 61.02 51.6868 60.7833 51.9802 60.61C52.2735 60.43 52.6102 60.34 52.9902 60.34C53.3902 60.34 53.7335 60.42 54.0202 60.58C54.3068 60.74 54.5302 60.9833 54.6902 61.31C54.8502 61.63 54.9302 62.0333 54.9302 62.52V65.5H53.9302V62.62C53.9302 62.1533 53.8268 61.8 53.6202 61.56C53.4135 61.32 53.1135 61.2 52.7202 61.2C52.4602 61.2 52.2268 61.2633 52.0202 61.39C51.8135 61.51 51.6468 61.69 51.5202 61.93C51.4002 62.17 51.3402 62.4633 51.3402 62.81V65.5H50.3402ZM58.4493 65.62C57.9693 65.62 57.546 65.5067 57.1793 65.28C56.8126 65.0467 56.526 64.7333 56.3193 64.34C56.1193 63.94 56.0193 63.4867 56.0193 62.98C56.0193 62.4667 56.1193 62.0133 56.3193 61.62C56.526 61.2267 56.8126 60.9167 57.1793 60.69C57.5526 60.4567 57.9793 60.34 58.4593 60.34C58.8526 60.34 59.1993 60.42 59.4993 60.58C59.7993 60.7333 60.0326 60.9533 60.1993 61.24V58.3H61.1993V65.5H60.2993L60.1993 64.72C60.0993 64.8733 59.9693 65.02 59.8093 65.16C59.6493 65.2933 59.456 65.4033 59.2293 65.49C59.0026 65.5767 58.7426 65.62 58.4493 65.62ZM58.6093 64.75C58.9226 64.75 59.1993 64.6767 59.4393 64.53C59.6793 64.3833 59.8626 64.1767 59.9893 63.91C60.1226 63.6433 60.1893 63.3333 60.1893 62.98C60.1893 62.6267 60.1226 62.32 59.9893 62.06C59.8626 61.7933 59.6793 61.5867 59.4393 61.44C59.1993 61.2867 58.9226 61.21 58.6093 61.21C58.3093 61.21 58.0393 61.2867 57.7993 61.44C57.5593 61.5867 57.3726 61.7933 57.2393 62.06C57.106 62.32 57.0393 62.6267 57.0393 62.98C57.0393 63.3333 57.106 63.6433 57.2393 63.91C57.3726 64.1767 57.5593 64.3833 57.7993 64.53C58.0393 64.6767 58.3093 64.75 58.6093 64.75Z" fill="#F9FAFB"/>
</g>
<defs>
<filter id="filter0_d_11391_25106" x="0" y="0" width="100" height="100" filterUnits="userSpaceOnUse" color-interpolation-filters="sRGB">
<feFlood flood-opacity="0" result="BackgroundImageFix"/>
<feColorMatrix in="SourceAlpha" type="matrix" values="0 0 0 0 0 0 0 0 0 0 0 0 0 0 0 0 0 0 127 0" result="hardAlpha"/>
<feOffset/>
<feGaussianBlur stdDeviation="7"/>
<feComposite in2="hardAlpha" operator="out"/>
<feColorMatrix type="matrix" values="0 0 0 0 0 0 0 0 0 0 0 0 0 0 0 0 0 0 0.16 0"/>
<feBlend mode="normal" in2="BackgroundImageFix" result="effect1_dropShadow_11391_25106"/>
<feBlend mode="normal" in="SourceGraphic" in2="effect1_dropShadow_11391_25106" result="shape"/>
</filter>
</defs>
</svg>
